<svg width="400" height="226" viewBox="0 0 400 226" fill="none" xmlns="http://www.w3.org/2000/svg">
<path d="M211.993 108.223L217.654 108.271C228.42 108.388 238.705 112.75 246.278 120.409C253.85 128.068 258.1 138.407 258.103 149.182V194.442C258.103 198.036 256.676 201.484 254.136 204.026C251.596 206.568 248.151 207.996 244.559 207.996H148.508C146.547 207.996 145.621 205.287 147.098 203.997C155.985 196.238 173.619 177.646 173.619 152.291L145.618 128.77L142.103 125.559C142.103 125.559 160.343 108.541 176.586 108.541C177.242 108.541 177.971 108.538 178.797 108.534C180.829 108.524 183.445 108.512 187 108.541V118.218C187 118.218 187.633 121.048 199.91 121.048C212.188 121.048 211.993 118.839 211.993 118.839V108.223Z" fill="#3164FA"/>
<path d="M96.963 156.473C96.6084 173.935 91.6648 183.387 91.6648 183.387C106.854 192.931 139.058 174.736 139.058 174.736C139.058 174.736 132.11 163.693 122.243 145.853C111.899 152.789 107.566 153.857 98.9949 155.971C98.3436 156.131 97.6678 156.298 96.963 156.473Z" fill="#3164FA"/>
<path fill-rule="evenodd" clip-rule="evenodd" d="M96.4207 79.4614L96.4196 79.461C95.5885 79.1582 94.7562 79.4768 94.4013 80.1708C94.2304 80.5052 94.1871 80.9076 94.3188 81.2947C94.451 81.6834 94.7365 81.9929 95.1105 82.1988L140.106 107.696L140.116 107.702C141.514 108.468 143.06 108.369 144.366 107.731C145.663 107.097 146.755 105.924 147.338 104.465C148.547 101.442 147.163 97.8371 144.182 96.7587L96.4207 79.4614ZM140.889 106.301L96.7188 81.2711L143.637 98.2631C145.659 98.9946 146.77 101.577 145.852 103.872C145.411 104.976 144.59 105.841 143.664 106.293C142.748 106.74 141.76 106.776 140.889 106.301Z" fill="#001F5C"/>
<path d="M97.9422 86.5094C97.9342 86.0676 97.5697 85.716 97.1279 85.7239C96.6862 85.7319 96.3345 86.0965 96.3425 86.5382C96.4376 91.8118 100.311 95.5504 103.923 97.9088C105.751 99.1017 107.567 99.9789 108.923 100.558C109.602 100.847 110.169 101.063 110.568 101.208C110.767 101.28 110.925 101.334 111.034 101.371C111.089 101.389 111.131 101.403 111.16 101.413L111.195 101.423L111.204 101.427L111.207 101.427C111.207 101.427 111.209 101.428 111.43 100.72L111.209 101.428C111.63 101.56 112.079 101.325 112.211 100.903C112.343 100.482 112.108 100.033 111.687 99.901L111.68 99.8989L111.653 99.8904C111.629 99.8826 111.592 99.8704 111.543 99.854C111.445 99.8211 111.299 99.7709 111.112 99.7032C110.738 99.5677 110.199 99.3625 109.551 99.0859C108.252 98.5319 106.525 97.6963 104.798 96.569C101.302 94.2869 98.0224 90.9552 97.9422 86.5094Z" fill="#001F5C"/>
<path d="M99.2889 97.7798C99.728 97.7333 100.122 98.0514 100.169 98.4904C100.169 98.4904 100.169 98.4911 99.3731 98.5753L98.5775 98.6595C98.531 98.2201 98.8495 97.8263 99.2889 97.7798Z" fill="#001F5C"/>
<path d="M100.169 98.4904L100.169 98.4983C100.171 98.5074 100.173 98.5231 100.176 98.545C100.182 98.5888 100.193 98.6572 100.209 98.7467C100.242 98.9259 100.298 99.1886 100.39 99.508C100.575 100.149 100.898 101.005 101.452 101.87C102.541 103.57 104.547 105.357 108.329 105.566C108.77 105.591 109.108 105.968 109.083 106.409C109.059 106.851 108.681 107.188 108.24 107.164C103.887 106.923 101.438 104.815 100.105 102.733C99.4473 101.706 99.0682 100.699 98.8527 99.9503C98.7446 99.5746 98.6768 99.2604 98.6356 99.0365C98.6149 98.9244 98.6009 98.8346 98.5918 98.7707C98.5872 98.7387 98.5839 98.7132 98.5816 98.6945L98.5789 98.6717L98.578 98.6643L98.5777 98.6616L98.5775 98.6595C98.5775 98.6595 98.5775 98.6595 99.3731 98.5753L100.169 98.4904Z" fill="#001F5C"/>
<path d="M126.96 98.8763C127.338 98.6474 127.829 98.7682 128.058 99.1462C130.684 103.481 131.849 108.021 132.361 111.463C132.617 113.187 132.711 114.643 132.74 115.672C132.755 116.186 132.753 116.594 132.748 116.876L132.747 116.914L174.133 151.663C174.472 151.947 174.516 152.452 174.232 152.79C173.948 153.128 173.443 153.172 173.105 152.888L131.42 117.889C131.227 117.727 131.121 117.482 131.136 117.23L131.136 117.227L131.137 117.21C131.138 117.195 131.139 117.171 131.14 117.139C131.143 117.074 131.146 116.976 131.148 116.847C131.153 116.588 131.155 116.205 131.141 115.717C131.113 114.741 131.024 113.349 130.778 111.698C130.286 108.391 129.171 104.072 126.69 99.9751C126.461 99.5971 126.582 99.1052 126.96 98.8763Z" fill="#001F5C"/>
<path fill-rule="evenodd" clip-rule="evenodd" d="M101.925 112.781C103.545 113.802 105.557 114.61 108.011 114.863C108.45 114.909 108.843 114.589 108.889 114.15C108.934 113.71 108.615 113.317 108.175 113.272C104.365 112.878 101.76 110.987 100.095 109.178C99.2611 108.272 98.667 107.39 98.2827 106.737C98.0908 106.411 97.9521 106.144 97.8627 105.961C97.818 105.87 97.7857 105.799 97.7653 105.754C97.7551 105.731 97.7479 105.715 97.7436 105.705L97.7393 105.695C97.5706 105.286 97.1029 105.092 96.6945 105.261C96.2861 105.429 96.0918 105.897 96.2605 106.305L96.9999 106C96.2605 106.305 96.2612 106.307 96.2612 106.307L96.2622 106.309L96.2649 106.316L96.2739 106.337C96.2814 106.354 96.2919 106.379 96.3055 106.409C96.3328 106.47 96.3726 106.556 96.4254 106.664C96.531 106.88 96.689 107.184 96.9038 107.549C97.3327 108.277 97.9919 109.256 98.9179 110.262C99.2987 110.675 99.7253 111.094 100.2 111.503L100.2 111.504L100.2 111.507L100.2 111.516L100.2 111.542C100.201 111.557 100.201 111.574 100.202 111.595L100.203 111.635C100.206 111.714 100.212 111.826 100.223 111.969C100.244 112.256 100.286 112.668 100.368 113.186C100.533 114.221 100.858 115.68 101.5 117.408C102.785 120.867 105.338 125.39 110.397 129.728C112.756 131.752 115.39 135.596 118.295 140.525C119.229 142.111 120.185 143.797 121.162 145.555C110.307 153.577 96.8791 157.33 83.4325 156.091C69.8511 154.839 57.2182 148.584 47.9842 138.538C47.6852 138.213 47.1791 138.192 46.8538 138.491C46.5285 138.79 46.5072 139.296 46.8062 139.621C56.3086 149.959 69.3089 156.396 83.2856 157.684C97.0536 158.953 110.802 155.136 121.943 146.967C122.821 148.56 123.715 150.204 124.627 151.88L124.628 151.882L124.629 151.883L124.63 151.884L124.635 151.893C125.6 153.668 126.586 155.479 127.591 157.303C130.894 163.295 134.403 169.412 138.101 174.766C141.792 180.112 145.706 184.751 149.833 187.746C150.191 188.006 150.691 187.926 150.95 187.569C151.21 187.211 151.13 186.711 150.773 186.451C146.864 183.614 143.072 179.15 139.417 173.857C135.768 168.573 132.29 162.515 128.992 156.531C127.996 154.723 127.015 152.921 126.051 151.149L126.05 151.147C123.831 147.069 121.7 143.152 119.673 139.713C116.777 134.798 114.025 130.732 111.438 128.514C106.605 124.369 104.2 120.081 102.999 116.851C102.398 115.233 102.098 113.878 101.949 112.935C101.94 112.882 101.932 112.831 101.925 112.781ZM96.9999 106C97.7393 105.695 97.7393 105.695 97.7393 105.695L96.9999 106Z" fill="#001F5C"/>
<path d="M60.6989 152.349C61.0906 152.145 61.5739 152.296 61.7782 152.688C67.9146 164.449 74.907 171.608 80.341 175.821C83.0593 177.928 85.3904 179.3 87.0333 180.143C87.8547 180.564 88.5042 180.853 88.9439 181.035C89.1637 181.126 89.3311 181.19 89.4414 181.231C89.4965 181.251 89.5373 181.266 89.5633 181.275L89.591 181.285L89.5959 181.286C90.015 181.425 90.243 181.878 90.1044 182.297C89.9658 182.716 89.5133 182.944 89.0938 182.806L89.3448 182.046C89.0938 182.806 89.0928 182.805 89.0928 182.805L89.0876 182.803L89.0756 182.799L89.0345 182.785C88.9995 182.773 88.9496 182.755 88.8853 182.731C88.7567 182.684 88.5706 182.612 88.3317 182.513C87.8539 182.315 87.165 182.008 86.3032 181.566C84.5793 180.682 82.1634 179.258 79.3607 177.085C73.7528 172.738 66.6073 165.403 60.3597 153.428C60.1553 153.037 60.3072 152.553 60.6989 152.349Z" fill="#001F5C"/>
<path d="M54.6238 127.199C54.1 127.413 53.5385 127.522 52.9716 127.521C52.1179 127.522 51.2833 127.273 50.5735 126.806C49.8637 126.34 49.3104 125.677 48.9837 124.901C48.657 124.126 48.5715 123.272 48.7381 122.449C48.9047 121.625 49.3158 120.869 49.9194 120.275L77.2559 93.3927C77.6567 92.9985 78.1325 92.6858 78.6562 92.4725C79.1799 92.2592 79.7412 92.1494 80.308 92.1494C80.8749 92.1494 81.4362 92.2592 81.9599 92.4725C82.4836 92.6858 82.9594 92.9985 83.3602 93.3927L93.2569 103.125L101.273 95.242C103.925 98.0356 106.841 99.2904 108.803 99.8427L96.309 112.13C95.9082 112.524 95.4324 112.836 94.9087 113.05C94.385 113.263 93.8237 113.373 93.2569 113.373C92.69 113.373 92.1287 113.263 91.6051 113.05C91.0814 112.836 90.6055 112.524 90.2047 112.13L80.308 102.397L56.0237 126.278C55.6233 126.673 55.1476 126.986 54.6238 127.199Z" fill="#3164FA"/>
<path d="M120.465 88.3749L123.469 85.4202L123.468 94.9793C123.468 96.1051 123.922 97.1847 124.732 97.9807C125.541 98.7767 126.639 99.2239 127.784 99.2239C128.929 99.2239 130.027 98.7767 130.836 97.9807C131.645 97.1847 132.1 96.1051 132.1 94.9793L132.103 75.171C132.103 74.0453 131.649 72.9656 130.839 72.1696C130.03 71.3736 128.932 70.9264 127.787 70.9264H107.644C106.5 70.9264 105.402 71.3736 104.592 72.1696C103.783 72.9656 103.328 74.0453 103.328 75.171C103.328 76.2968 103.783 77.3764 104.592 78.1724C105.402 78.9685 106.5 79.4157 107.644 79.4157H117.367L111.537 85.149L120.465 88.3749Z" fill="#3164FA"/>
<path d="M190.485 77.1154C190.485 78.5961 189.763 79.7965 188.872 79.7965C187.982 79.7965 187.26 78.5961 187.26 77.1154C187.26 75.6347 187.982 74.4343 188.872 74.4343C189.763 74.4343 190.485 75.6347 190.485 77.1154Z" fill="#001F5C"/>
<path d="M191.023 69.3941L185.36 72.3171C184.68 72.6684 183.865 71.9698 184.019 71.1737C184.2 70.2253 184.805 69.0818 186.406 68.2467C187.709 67.5904 189.186 67.3583 190.63 67.5832C191.522 67.7081 191.79 68.9921 191.023 69.3941Z" fill="#001F5C"/>
<path d="M210.225 77.1154C210.225 78.5961 209.503 79.7965 208.612 79.7965C207.722 79.7965 207 78.5961 207 77.1154C207 75.6347 207.722 74.4343 208.612 74.4343C209.503 74.4343 210.225 75.6347 210.225 77.1154Z" fill="#001F5C"/>
<path d="M207.472 69.4126L213.147 72.1444C213.827 72.4683 214.614 71.7542 214.441 70.9736C214.232 70.037 213.615 68.9286 211.994 68.152C210.69 67.5388 209.224 67.3516 207.806 67.6173C206.929 67.7656 206.693 69.0418 207.472 69.4126Z" fill="#001F5C"/>
<path fill-rule="evenodd" clip-rule="evenodd" d="M193.5 87.6997C193.058 87.6997 192.7 88.0579 192.7 88.4997C192.7 89.5428 192.824 91.2507 193.845 92.7085C194.903 94.2211 196.805 95.2997 200 95.2997C202.664 95.2997 204.34 94.1677 205.287 92.6794C206.201 91.2443 206.391 89.5573 206.297 88.4333C206.263 88.0186 205.916 87.6997 205.5 87.6997H193.5ZM195.155 91.7909C195.057 91.6501 194.969 91.5046 194.891 91.3561C196.673 90.7538 200.41 90.0983 204.244 91.2491C204.157 91.4445 204.055 91.636 203.938 91.8201C203.294 92.8317 202.136 93.6997 200 93.6997C197.195 93.6997 195.847 92.7784 195.155 91.7909Z" fill="#001F5C"/>
<path d="M197.537 82.9067C197.209 82.6101 196.704 82.6352 196.407 82.9627C196.11 83.2902 196.136 83.7961 196.463 84.0927C196.976 84.5568 197.867 85.0942 198.946 85.2533C200.063 85.4179 201.348 85.1691 202.537 84.0927C202.865 83.7961 202.89 83.2902 202.593 82.9627C202.296 82.6352 201.791 82.6101 201.463 82.9067C200.652 83.6414 199.854 83.7699 199.179 83.6704C198.466 83.5653 197.858 83.1972 197.537 82.9067Z" fill="#001F5C"/>
<path fill-rule="evenodd" clip-rule="evenodd" d="M186.385 98.745C185.808 97.9699 185.259 97.147 184.74 96.2812C183.016 93.4069 181.604 90.0338 180.586 86.3083C178.347 87.0762 176.524 87.1144 175.048 86.6194C173.386 86.0618 172.3 84.8737 171.6 83.6093C170.905 82.3529 170.565 80.9806 170.397 79.946C170.312 79.4243 170.268 78.9777 170.246 78.6593C170.235 78.4999 170.229 78.3721 170.226 78.2823C170.225 78.2374 170.224 78.202 170.224 78.1769L170.224 78.1707L170.22 78.1274C170.217 78.0801 170.213 78.0135 170.209 77.9302C170.201 77.7637 170.196 77.5291 170.204 77.2473C170.219 76.6878 170.285 75.9226 170.496 75.1285C170.917 73.5423 171.983 71.6725 174.502 71.3575C176.447 71.1126 177.841 71.7925 178.767 72.6152C178.766 72.4953 178.766 72.3752 178.766 72.255C178.766 62.9079 181.038 56.0168 184.819 51.4477C188.613 46.863 193.858 44.6997 199.604 44.6997C205.352 44.6997 210.598 46.8618 214.393 51.4461C218.174 56.0147 220.447 62.9059 220.447 72.255C220.447 72.3428 220.446 72.4305 220.446 72.5181C221.371 71.7401 222.73 71.1223 224.599 71.3575C227.148 71.6766 228.178 73.6806 228.57 75.3337C228.768 76.1706 228.824 76.9785 228.831 77.57C228.835 77.8677 228.827 78.1156 228.817 78.2911C228.812 78.379 228.807 78.4491 228.803 78.4986L228.8 78.5399C228.799 78.5644 228.799 78.599 228.798 78.6427C228.795 78.73 228.79 78.8542 228.78 79.0089C228.76 79.3178 228.72 79.7509 228.638 80.2564C228.476 81.2582 228.145 82.5881 227.455 83.8018C226.759 85.0256 225.677 86.1645 224.021 86.6821C222.579 87.133 220.8 87.0812 218.615 86.3452C217.598 90.0569 216.189 93.4178 214.47 96.2829C214.121 96.8657 213.757 97.4291 213.381 97.9716V118.607C213.39 118.661 213.395 118.723 213.395 118.791C213.395 118.98 213.35 119.198 213.231 119.424C212.995 119.869 212.521 120.254 211.752 120.578C210.228 121.219 207.131 121.79 200.75 121.79C194.335 121.79 190.826 121.051 188.889 120.259C187.914 119.861 187.316 119.44 186.949 119.074C186.765 118.89 186.64 118.722 186.557 118.581C186.515 118.511 186.485 118.448 186.462 118.394C186.45 118.367 186.441 118.343 186.433 118.321C186.43 118.31 186.426 118.3 186.423 118.291L186.419 118.277L186.417 118.271L186.415 118.264L186.385 118.158V98.745ZM180.366 72.255C180.366 63.1498 182.58 56.6633 186.051 52.4677C189.51 48.2879 194.284 46.2997 199.604 46.2997C204.926 46.2997 209.701 48.287 213.16 52.4663C216.633 56.6612 218.847 63.1476 218.847 72.255C218.847 73.1136 218.827 73.9642 218.788 74.8055L218.786 74.8112L218.784 74.8161L218.784 74.818L218.784 74.8191L218.788 74.8207C218.415 82.8982 216.301 90.1228 213.098 95.4597C210.764 99.3496 207.891 102.184 204.73 103.668C203.208 104.373 201.489 104.841 199.604 104.841C198.39 104.842 197.233 104.644 196.15 104.317C192.332 103.137 188.85 100.024 186.112 95.4583C182.575 89.5616 180.366 81.3616 180.366 72.255ZM187.985 117.838V106.67C191.445 107.824 205.238 111.575 211.781 100.595V118.718C211.715 118.787 211.542 118.93 211.132 119.103C209.924 119.611 207.106 120.19 200.75 120.19C194.427 120.19 191.155 119.457 189.494 118.778C188.669 118.441 188.264 118.126 188.079 117.941C188.038 117.901 188.008 117.866 187.985 117.838ZM219.014 84.7905C219.734 81.7694 220.201 78.5398 220.372 75.1742C220.402 75.1129 220.44 75.0397 220.485 74.9577C220.635 74.6901 220.866 74.3399 221.193 74.0054C221.83 73.3535 222.833 72.7478 224.399 72.945C225.962 73.1406 226.683 74.3107 227.013 75.7031C227.176 76.3889 227.225 77.0716 227.231 77.5901C227.235 77.8473 227.227 78.0593 227.219 78.2048C227.215 78.2774 227.211 78.3332 227.208 78.3694L227.205 78.4086L227.204 78.4163L227.204 78.4174L227.2 78.4591L227.2 78.5012L227.2 78.5042L227.2 78.5212L227.2 78.5444L227.198 78.5979C227.196 78.6673 227.192 78.7718 227.184 78.9054C227.166 79.1731 227.131 79.5545 227.059 80.0009C226.913 80.903 226.624 82.0264 226.064 83.011C225.51 83.9854 224.713 84.7895 223.544 85.155C222.49 85.4843 221.031 85.49 219.014 84.7905ZM180.189 84.7525C179.487 81.7961 179.028 78.6408 178.849 75.3542L178.821 75.3646C178.814 75.3673 178.814 75.3675 178.814 75.3675L178.815 75.3691L178.808 75.3535C178.802 75.3373 178.791 75.3101 178.774 75.2736C178.742 75.2003 178.689 75.0906 178.615 74.9577C178.466 74.6901 178.234 74.3399 177.907 74.0054C177.271 73.3535 176.267 72.7478 174.701 72.945C173.104 73.1447 172.381 74.2645 172.042 75.5393C171.873 76.1757 171.816 76.8088 171.803 77.29C171.797 77.5286 171.801 77.725 171.807 77.8593C171.81 77.9264 171.814 77.9777 171.816 78.0108L171.819 78.0462L171.819 78.0528L171.823 78.09L171.823 78.127L171.823 78.1303L171.823 78.1483C171.824 78.1653 171.824 78.1923 171.826 78.2285C171.828 78.3008 171.833 78.4097 171.842 78.5487C171.862 78.8271 171.9 79.2238 171.976 79.6886C172.129 80.6271 172.428 81.8004 173 82.8344C173.568 83.8605 174.38 84.7077 175.557 85.1024C176.631 85.4628 178.122 85.4837 180.189 84.7525Z" fill="#001F5C"/>
<path d="M179.436 76.5V64.2543C179.436 64.2543 183.723 69.0699 190.111 61.8485C193.598 67.0858 197.3 66.1064 201.222 61.8485C205.505 67.5797 209.572 64.1819 211.242 61.8485C213.784 66.5918 218.358 65.208 218.358 65.208L219.149 76.0189C219.149 76.0189 219.381 70.6369 226.196 72.5487C231.283 64.6928 229.322 52.7281 221.333 45.5067C224.965 41.6107 225.546 37.1527 223.73 31.8431C221.914 26.5335 215.786 20.5 204.224 20.5C192.661 20.5 190.045 29.0669 190.045 33.5292C190.045 37.9915 192.076 39.8309 192.076 39.8309C192.076 39.8309 170 44.7147 170 63.2494C170 71.3905 172.036 72.5231 172.036 72.5231C172.036 72.5231 178.055 69.9173 179.436 76.5Z" fill="#001F5C"/>
<path fill-rule="evenodd" clip-rule="evenodd" d="M344.985 90.1224C342.74 90.1224 340.921 91.942 340.921 94.1867C340.921 96.4314 342.74 98.2511 344.985 98.2511C347.23 98.2511 349.049 96.4314 349.049 94.1867C349.049 91.942 347.23 90.1224 344.985 90.1224ZM342.521 94.1867C342.521 92.8257 343.624 91.7224 344.985 91.7224C346.346 91.7224 347.449 92.8257 347.449 94.1867C347.449 95.5477 346.346 96.6511 344.985 96.6511C343.624 96.6511 342.521 95.5477 342.521 94.1867Z" fill="#001F5C"/>
<path fill-rule="evenodd" clip-rule="evenodd" d="M286.16 72.7608H323.264C324.832 75.6179 327.87 77.5546 331.359 77.5546C334.849 77.5546 337.886 75.6179 339.455 72.7608H349.54C351.848 72.7608 353.72 74.6323 353.72 76.9408V85.0247H345.012C340.07 85.0247 336.064 89.0312 336.064 93.9736C336.064 98.9159 340.07 102.922 345.012 102.922H357.03C358.586 102.922 359.847 101.661 359.847 100.106V87.8413C359.847 86.2858 358.586 85.0247 357.03 85.0247H355.32V76.9408C355.32 74.1789 353.382 71.8694 350.792 71.2971V65.5483C350.792 62.8974 348.643 60.7483 345.992 60.7483H341.298C340.856 60.7483 340.498 61.1065 340.498 61.5483C340.498 61.9902 340.856 62.3483 341.298 62.3483H345.992C347.76 62.3483 349.192 63.781 349.192 65.5483V71.1608H340.145C340.433 70.2674 340.588 69.3146 340.588 68.3254C340.588 63.2282 336.456 59.0962 331.359 59.0962C326.262 59.0962 322.13 63.2282 322.13 68.3254C322.13 69.3146 322.286 70.2674 322.574 71.1608H286.16C283.726 71.1608 281.753 69.188 281.753 66.7546C281.753 64.3211 283.726 62.3483 286.16 62.3483H294.442C294.884 62.3483 295.242 61.9902 295.242 61.5483C295.242 61.1065 294.884 60.7483 294.442 60.7483H286.16C283.201 60.7483 280.742 62.8875 280.245 65.7035C280.187 65.8147 280.153 65.9413 280.153 66.0757V107.5C280.153 113.465 284.989 118.3 290.953 118.3H347.52C351.827 118.3 355.32 114.808 355.32 110.5V105.235C355.32 104.794 354.961 104.435 354.52 104.435C354.078 104.435 353.72 104.794 353.72 105.235V110.5C353.72 113.924 350.944 116.7 347.52 116.7H290.953C285.872 116.7 281.753 112.581 281.753 107.5V70.8362C282.85 72.0199 284.419 72.7608 286.16 72.7608ZM323.73 68.3254C323.73 69.3274 323.923 70.2842 324.274 71.1608H338.444C338.795 70.2842 338.988 69.3274 338.988 68.3254C338.988 64.1119 335.573 60.6962 331.359 60.6962C327.146 60.6962 323.73 64.1119 323.73 68.3254ZM331.359 75.9546C333.918 75.9546 336.183 74.6944 337.567 72.7608H325.151C326.535 74.6944 328.8 75.9546 331.359 75.9546ZM337.664 93.9736C337.664 89.9149 340.954 86.6247 345.012 86.6247H357.03C357.702 86.6247 358.247 87.1694 358.247 87.8413V100.106C358.247 100.778 357.702 101.322 357.03 101.322H345.012C340.954 101.322 337.664 98.0322 337.664 93.9736Z" fill="#001F5C"/>
<rect x="296.572" y="43.5" width="26.2677" height="26.2677" rx="13.1339" fill="#3164FA"/>
</svg>
